<svg xmlns="http://www.w3.org/2000/svg" width="512" height="512" fill="none" viewBox="0 0 512 512"><g filter="url(#filter0_ddii_2_2)"><path fill="url(#paint0_linear_2_2)" d="M53 224C53 141.157 120.157 74 203 74H420C442.091 74 460 91.9086 460 114V288C460 370.843 392.843 438 310 438H93C70.9086 438 53 420.091 53 398V224Z"/></g><path fill="#fff" d="M107 296.92C106.627 292.28 106.36 287.773 106.2 283.4C106.093 279.027 106.04 274.893 106.04 271C106.04 264.547 106.173 258.76 106.44 253.64C106.707 248.467 106.973 244.013 107.24 240.28C102.653 240.547 98.2 240.893 93.88 241.32C89.56 241.747 85.56 242.307 81.88 243L82.04 229.64C88.28 228.52 94.68 227.72 101.24 227.24C107.8 226.707 114.36 226.44 120.92 226.44C125.613 226.44 130.093 226.547 134.36 226.76C138.68 226.973 142.813 227.293 146.76 227.72L146.68 241.56C142.947 240.973 138.893 240.573 134.52 240.36C130.2 240.093 125.773 239.96 121.24 239.96C120.973 243.587 120.733 247.64 120.52 252.12C120.307 256.547 120.2 261.293 120.2 266.36C120.2 270.893 120.307 275.667 120.52 280.68C120.787 285.693 121.107 290.973 121.48 296.52L107 296.92ZM171.225 297.56C166.798 297.56 163.038 294.12 159.945 287.24C158.878 284.787 157.945 282.093 157.145 279.16C156.345 276.227 155.652 273.24 155.065 270.2C154.532 267.16 154.078 264.253 153.705 261.48C153.385 258.653 153.118 256.173 152.905 254.04C152.745 251.853 152.612 250.2 152.505 249.08L165.625 246.04C166.265 258.147 167.225 267.347 168.505 273.64C169.838 279.933 170.852 283.08 171.545 283.08C171.918 283.08 172.372 282.333 172.905 280.84C173.492 279.347 174.132 277.373 174.825 274.92C175.518 272.413 176.185 269.667 176.825 266.68C177.465 263.693 178.025 260.68 178.505 257.64C177.865 253.747 177.438 250.653 177.225 248.36L190.745 247.88V248.84C190.745 251.027 190.905 253.587 191.225 256.52C191.545 259.453 191.945 262.493 192.425 265.64C192.905 268.733 193.412 271.613 193.945 274.28C194.532 276.947 195.092 279.107 195.625 280.76C196.158 282.413 196.612 283.24 196.985 283.24C197.305 283.24 197.758 282.52 198.345 281.08C198.932 279.64 199.572 277.667 200.265 275.16C201.012 272.653 201.758 269.8 202.505 266.6C203.252 263.347 203.972 259.933 204.665 256.36C205.358 252.733 205.918 249.133 206.345 245.56L219.545 248.36C218.638 253.427 217.545 258.467 216.265 263.48C215.038 268.44 213.732 273.053 212.345 277.32C210.958 281.533 209.598 285.08 208.265 287.96C205.278 294.307 201.572 297.48 197.145 297.48C195.705 297.48 194.052 297.027 192.185 296.12C190.372 295.267 188.692 293.453 187.145 290.68C186.612 289.667 186.078 288.44 185.545 287C185.012 285.56 184.505 283.96 184.025 282.2C183.385 284.173 182.745 285.933 182.105 287.48C179.278 294.2 175.652 297.56 171.225 297.56ZM228.119 296.84C228.119 288.52 228.226 281.027 228.439 274.36C228.706 267.64 229.026 261.533 229.399 256.04C229.826 250.493 230.279 245.347 230.759 240.6C231.293 235.8 231.799 231.213 232.279 226.84L246.039 227.4C245.826 229.053 245.586 230.84 245.319 232.76C247.133 235.213 249.106 238.013 251.239 241.16C253.426 244.307 255.639 247.64 257.879 251.16C260.173 254.627 262.413 258.12 264.599 261.64C266.786 265.107 268.866 268.44 270.839 271.64C272.813 274.787 274.546 277.613 276.039 280.12C276.413 276.44 276.599 271.267 276.599 264.6C276.599 261.187 276.546 257.667 276.439 254.04C276.333 250.413 276.199 246.947 276.039 243.64C275.879 240.28 275.666 237.293 275.399 234.68C275.133 232.013 274.839 229.933 274.519 228.44L289.559 226.6C289.666 229.213 289.719 232.653 289.719 236.92C289.773 241.133 289.799 245.613 289.799 250.36C289.799 254.573 289.773 258.813 289.719 263.08C289.666 267.293 289.559 271.187 289.399 274.76C289.239 278.333 288.999 281.293 288.679 283.64C288.093 288.227 286.919 291.613 285.159 293.8C283.399 295.987 280.919 297.08 277.719 297.08C275.106 297.08 272.706 296.173 270.519 294.36C268.386 292.547 266.066 289.56 263.559 285.4C261.853 282.52 259.853 279.213 257.559 275.48C255.319 271.693 252.973 267.827 250.519 263.88C248.119 259.933 245.799 256.173 243.559 252.6C243.133 258.84 242.813 265.08 242.599 271.32C242.386 277.507 242.279 283.107 242.279 288.12C242.279 289.72 242.279 291.213 242.279 292.6C242.279 294.04 242.306 295.373 242.359 296.6L228.119 296.84ZM301.083 296.52C301.029 296.093 300.976 295.533 300.923 294.84C300.923 294.147 300.923 293.347 300.923 292.44C300.923 290.253 300.976 287.587 301.083 284.44C301.243 281.24 301.429 277.773 301.643 274.04C301.856 270.253 302.096 266.44 302.363 262.6C302.629 258.707 302.896 254.973 303.163 251.4C303.483 247.773 303.776 244.547 304.043 241.72C303.189 241.827 302.363 241.933 301.563 242.04L299.803 228.44C305.349 227.693 311.243 227.16 317.483 226.84C323.776 226.52 329.909 226.36 335.883 226.36C340.363 226.36 344.656 226.467 348.763 226.68C352.923 226.84 356.656 227.08 359.963 227.4L358.763 240.68C356.309 240.2 353.509 239.88 350.363 239.72C347.216 239.507 343.829 239.4 340.203 239.4C336.469 239.4 332.603 239.507 328.603 239.72C324.656 239.88 320.816 240.093 317.083 240.36C316.869 242.493 316.656 244.707 316.443 247C316.283 249.293 316.123 251.667 315.963 254.12C318.736 253.747 321.803 253.48 325.163 253.32C328.576 253.16 331.963 253.08 335.323 253.08C339.163 253.08 342.763 253.187 346.123 253.4C349.536 253.613 352.149 253.987 353.963 254.52L353.003 267.4C349.269 266.973 345.776 266.68 342.523 266.52C339.269 266.307 336.096 266.2 333.003 266.2C326.976 266.2 321.029 266.6 315.163 267.4C314.843 273 314.576 278.333 314.363 283.4C314.203 288.467 314.069 292.733 313.963 296.2L301.083 296.52ZM390.828 296.92C390.455 292.28 390.188 287.773 390.028 283.4C389.921 279.027 389.868 274.893 389.868 271C389.868 264.547 390.001 258.76 390.268 253.64C390.535 248.467 390.801 244.013 391.068 240.28C386.481 240.547 382.028 240.893 377.708 241.32C373.388 241.747 369.388 242.307 365.708 243L365.868 229.64C372.108 228.52 378.508 227.72 385.068 227.24C391.628 226.707 398.188 226.44 404.748 226.44C409.441 226.44 413.921 226.547 418.188 226.76C422.508 226.973 426.641 227.293 430.588 227.72L430.508 241.56C426.775 240.973 422.721 240.573 418.348 240.36C414.028 240.093 409.601 239.96 405.068 239.96C404.801 243.587 404.561 247.64 404.348 252.12C404.135 256.547 404.028 261.293 404.028 266.36C404.028 270.893 404.135 275.667 404.348 280.68C404.615 285.693 404.935 290.973 405.308 296.52L390.828 296.92Z"/><defs><filter id="filter0_ddii_2_2" width="419" height="372" x="49" y="74" color-interpolation-filters="sRGB" filterUnits="userSpaceOnUse"><feFlood flood-opacity="0" result="BackgroundImageFix"/><feColorMatrix in="SourceAlpha" result="hardAlpha" type="matrix" values="0 0 0 0 0 0 0 0 0 0 0 0 0 0 0 0 0 0 127 0"/><feOffset dy="4"/><feGaussianBlur stdDeviation="2"/><feComposite in2="hardAlpha" operator="out"/><feColorMatrix type="matrix" values="0 0 0 0 0 0 0 0 0 0.215686 0 0 0 0 0.34902 0 0 0 0.25 0"/><feBlend in2="BackgroundImageFix" mode="normal" result="effect1_dropShadow_2_2"/><feColorMatrix in="SourceAlpha" result="hardAlpha" type="matrix" values="0 0 0 0 0 0 0 0 0 0 0 0 0 0 0 0 0 0 127 0"/><feOffset dx="4" dy="4"/><feGaussianBlur stdDeviation="2"/><feComposite in2="hardAlpha" operator="out"/><feColorMatrix type="matrix" values="0 0 0 0 0 0 0 0 0 0.215686 0 0 0 0 0.34902 0 0 0 0.25 0"/><feBlend in2="effect1_dropShadow_2_2" mode="normal" result="effect2_dropShadow_2_2"/><feBlend in="SourceGraphic" in2="effect2_dropShadow_2_2" mode="normal" result="shape"/><feColorMatrix in="SourceAlpha" result="hardAlpha" type="matrix" values="0 0 0 0 0 0 0 0 0 0 0 0 0 0 0 0 0 0 127 0"/><feOffset dy="4"/><feGaussianBlur stdDeviation="2"/><feComposite in2="hardAlpha" k2="-1" k3="1" operator="arithmetic"/><feColorMatrix type="matrix" values="0 0 0 0 0 0 0 0 0 0.216901 0 0 0 0 0.35 0 0 0 0.25 0"/><feBlend in2="shape" mode="normal" result="effect3_innerShadow_2_2"/><feColorMatrix in="SourceAlpha" result="hardAlpha" type="matrix" values="0 0 0 0 0 0 0 0 0 0 0 0 0 0 0 0 0 0 127 0"/><feOffset dx="4" dy="4"/><feGaussianBlur stdDeviation="2"/><feComposite in2="hardAlpha" k2="-1" k3="1" operator="arithmetic"/><feColorMatrix type="matrix" values="0 0 0 0 0 0 0 0 0 0.215686 0 0 0 0 0.34902 0 0 0 0.25 0"/><feBlend in2="effect3_innerShadow_2_2" mode="normal" result="effect4_innerShadow_2_2"/></filter><linearGradient id="paint0_linear_2_2" x1="460" x2="53" y1="438" y2="74" gradientUnits="userSpaceOnUse"><stop stop-color="#BE185D"/><stop offset="1" stop-color="#1D4ED8"/></linearGradient></defs></svg>